<svg version="1.0" xmlns="http://www.w3.org/2000/svg"
 width="300.000000pt" height="300.000000pt" viewBox="0 0 300.000000 300.000000"
 preserveAspectRatio="xMidYMid meet">
<g transform="translate(0.000000,300.00000) scale(0.100000,-0.100000)"
fill="#6a7090" stroke="#6a7090" stroke-width="10%" width="50px">
<path d="M480 2935 l0 -65 45 0 45 0 0 65 0 65 -45 0 -45 0 0 -65z"/>
<path d="M263 2929 c-18 -12 -33 -23 -33 -25 0 -2 14 -29 31 -58 l30 -55 37
21 c20 12 38 22 40 23 4 3 -62 114 -68 114 -3 1 -20 -9 -37 -20z"/>
<path d="M720 2894 c-18 -30 -31 -56 -29 -58 2 -1 20 -12 39 -23 l35 -21 32
58 32 59 -35 20 c-19 12 -37 21 -39 21 -2 0 -18 -25 -35 -56z"/>
<path d="M425 2763 c-75 -25 -165 -119 -189 -197 -24 -75 -17 -158 19 -231 31
-64 79 -109 153 -143 47 -21 65 -24 136 -20 98 5 150 30 214 103 50 57 72 119
72 205 0 117 -71 225 -179 273 -62 27 -162 32 -226 10z m206 -101 c76 -39 114
-103 114 -186 -1 -130 -91 -220 -221 -221 -83 0 -147 38 -186 114 -103 196 97
396 293 293z"/>
<path d="M70 2734 c-12 -19 -21 -36 -19 -37 43 -28 112 -67 113 -65 2 2 12 20
24 40 l21 37 -55 30 c-29 17 -56 31 -58 31 -2 0 -14 -16 -26 -36z"/>
<path d="M903 2740 c-29 -17 -53 -32 -53 -35 0 -2 9 -20 21 -39 l20 -35 52 31
c29 16 54 32 56 34 5 5 -31 74 -39 74 -3 0 -29 -14 -57 -30z"/>
<path d="M0 2475 l0 -45 65 0 65 0 0 45 0 45 -65 0 -65 0 0 -45z"/>
<path d="M920 2475 l0 -45 68 0 67 0 1 45 1 45 -69 0 -68 0 0 -45z"/>
<path d="M107 2281 c-63 -37 -61 -33 -37 -74 l21 -36 59 32 58 32 -22 37 c-11
21 -23 38 -26 37 -3 0 -26 -13 -53 -28z"/>
<path d="M870 2274 c-12 -19 -21 -36 -19 -38 34 -25 114 -66 116 -60 2 5 11
23 21 39 l19 30 -54 33 c-30 17 -56 32 -58 32 -2 0 -13 -16 -25 -36z"/>
<path d="M260 2098 c-16 -29 -30 -55 -30 -58 0 -7 69 -44 73 -39 2 2 18 27 35
56 l31 52 -35 20 c-19 12 -37 21 -39 21 -3 0 -18 -24 -35 -52z"/>
<path d="M725 2130 c-16 -11 -30 -23 -30 -27 0 -5 13 -31 29 -59 l30 -51 35
20 c20 11 37 21 39 22 4 3 -62 115 -68 115 -3 0 -18 -9 -35 -20z"/>
<path d="M480 2012 l0 -69 45 1 45 1 0 68 0 67 -45 0 -45 0 0 -68z"/>
<path d="M1130 1850 c-122 -17 -242 -62 -353 -133 l-78 -50 23 -26 c12 -14 26
-30 29 -34 3 -5 32 10 63 32 128 89 305 138 466 128 188 -12 345 -83 480 -217
88 -88 135 -157 177 -260 48 -119 53 -180 53 -621 l0 -409 -247 0 -248 0 -19
45 c-26 65 -102 115 -172 115 -23 0 -24 3 -24 70 0 63 2 70 20 70 37 0 130 42
179 80 108 86 151 188 151 361 l0 109 -50 0 c-93 0 -227 -60 -278 -125 -11
-14 -22 -25 -25 -25 -2 0 -10 20 -16 44 -16 63 -88 164 -144 202 -69 48 -148
74 -219 74 l-60 0 4 -122 c6 -154 27 -214 103 -296 58 -63 124 -104 198 -122
l47 -12 0 -154 0 -154 -27 0 c-66 -1 -164 -75 -179 -135 l-6 -25 -249 0 -249
0 0 393 c0 215 5 424 10 462 20 139 76 269 163 376 l43 54 -32 28 -32 27 -30
-34 c-49 -56 -91 -121 -127 -199 -69 -146 -69 -143 -73 -650 l-3 -459 -44 4
-45 3 0 -132 c0 -126 1 -133 20 -133 17 0 20 7 20 47 l0 46 23 -21 23 -22
1015 -2 1014 -3 3 -22 c2 -15 10 -23 23 -23 16 0 19 7 19 45 l0 45 -1040 0
-1040 0 0 45 0 45 1260 0 1260 0 0 -45 0 -45 -85 0 -85 0 0 -45 c0 -51 24 -63
40 -20 9 23 15 25 68 25 48 0 62 4 80 23 51 54 12 147 -63 147 -40 0 -44 9
-15 35 19 17 21 17 44 -8 19 -21 35 -27 66 -27 33 0 40 3 40 20 0 17 -7 20
-45 20 l-45 0 0 419 c0 320 -3 437 -14 493 -61 320 -296 570 -621 660 -77 21
-98 22 -585 24 -278 1 -530 -1 -560 -6z m475 -67 c-13 -19 -14 -27 -4 -39 19
-23 7 -24 -40 -3 -24 10 -76 29 -115 42 l-71 22 115 5 c63 3 119 3 123 2 4 -2
1 -15 -8 -29z m660 -37 c294 -85 507 -328 553 -628 l9 -58 -377 0 -377 0 -6
68 c-11 138 -92 317 -198 441 -51 60 -139 132 -212 173 l-52 29 300 -4 c247
-3 311 -7 360 -21z m-1341 -515 c3 -4 -3 -16 -13 -25 -21 -19 -37 -7 -27 19 6
16 32 20 40 6z m83 -60 c58 -27 128 -94 154 -149 26 -52 43 -202 23 -202 -32
0 -108 36 -146 70 -67 59 -101 129 -106 222 -5 89 -1 93 75 59z m577 -124 c6
-9 7 -19 3 -23 -9 -9 -37 15 -37 33 0 18 20 12 34 -10z m496 -25 c0 -9 -32
-42 -42 -42 -4 0 -8 18 -8 40 l0 40 25 -16 c14 -9 25 -19 25 -22z m790 -8 c0
-39 -9 -43 -35 -14 -17 19 -17 21 0 40 23 26 35 17 35 -26z m-1327 -56 c-7
-90 -18 -128 -54 -181 -41 -62 -99 -103 -183 -128 l-29 -8 5 77 c6 94 31 155
88 212 41 41 129 90 162 90 14 0 15 -9 11 -62z m947 54 c0 -5 -9 -17 -20 -27
-19 -17 -21 -17 -40 0 -29 27 -25 35 20 35 22 0 40 -4 40 -8z m-80 -197 l0
-155 -165 0 -164 0 -3 155 -3 155 168 0 167 0 0 -155z m415 0 l0 -155 -167 0
-168 0 0 155 0 155 168 0 167 0 0 -155z m-1526 120 c17 5 15 -2 -14 -57 -18
-35 -36 -82 -40 -105 -6 -39 -9 -42 -26 -32 -30 16 -34 38 -10 63 17 18 21 35
21 89 l0 67 25 -16 c13 -9 33 -13 44 -9z m1181 -290 l24 -26 -27 -26 -26 -27
-25 23 -25 23 21 29 c26 35 28 35 58 4z m-415 -5 c17 -19 17 -21 0 -40 -27
-29 -35 -25 -35 20 0 45 8 49 35 20z m805 -20 c0 -45 -8 -49 -35 -20 -17 19
-17 21 0 40 27 29 35 25 35 -20z m-1597 2 c16 -17 15 -20 -6 -40 -28 -26 -37
-20 -37 25 0 37 17 43 43 15z m1137 -204 l0 -158 -165 0 -165 0 0 158 0 157
165 0 165 0 0 -157z m414 -2 l1 -156 -167 0 -168 0 0 158 0 157 166 -1 166 -2
2 -156z m-1564 -11 c16 -19 4 -35 -25 -35 -13 0 -27 5 -30 10 -8 13 13 40 30
40 7 0 18 -7 25 -15z m109 -101 c17 -14 31 -30 31 -35 0 -5 -72 -9 -165 -9
-93 0 -165 4 -165 9 0 5 14 21 31 35 29 24 37 26 134 26 97 0 105 -2 134 -26z
m-299 -78 c0 -3 -18 -6 -40 -6 -46 0 -48 5 -19 36 l22 23 18 -23 c11 -13 19
-27 19 -30z m399 22 l24 -28 -47 0 -47 0 21 31 c12 16 23 29 24 27 0 -2 12
-15 25 -30z m-1005 -3 l16 -25 -38 0 c-26 0 -45 -7 -57 -20 -22 -24 -35 -26
-35 -5 0 9 10 19 23 24 12 5 31 18 41 30 24 27 30 26 50 -4z m1588 8 c27 -25
22 -33 -22 -33 l-41 0 18 25 c22 29 22 29 45 8z m426 -11 c14 -21 13 -22 -27
-22 l-41 0 16 25 c19 29 31 28 52 -3z"/>
<path d="M1370 1595 l0 -45 45 0 45 0 0 45 0 45 -45 0 -45 0 0 -45z"/>
<path d="M1540 1505 l0 -45 45 0 45 0 0 45 0 45 -45 0 -45 0 0 -45z"/>
<path d="M2560 45 l0 -45 45 0 45 0 0 45 0 45 -45 0 -45 0 0 -45z"/>
</g>
</svg>
